# xmcd
#
# Track frame offsets: 
#        150
#        51525
#        82463
#        113663
#        129678
#        181316
#        206653
#        233830
#
# Disc length: 3882 seconds
#
# Revision: 0
# Processed by: cddbd v1.5.2PL0 Copyright (c) Steve Scherf et al.
# Submitted via: ExactAudioCopy v0.99pb5
#
DISCID=760f2808
DTITLE=Roto Visage - Where the Mandrakes Grow
DYEAR=2009
DGENRE=Industrial
TTITLE0=Uproot, A Noose of Silk
TTITLE1=Willows Deep
TTITLE2=Visceral Monologue
TTITLE3=Interlude: The Death of Kotzwara
TTITLE4=Sickly Sweet Fertilizer
TTITLE5=A Breath, Then It Comes
TTITLE6=Aural Cavity Obstruction
TTITLE7=Light Rejection, The Return
EXTD=
EXTT0=
EXTT1=
EXTT2=
EXTT3=
EXTT4=
EXTT5=
EXTT6=
EXTT7=
PLAYORDER=
